# Blender v2.93.2 OBJ File: 'rect.blend'
# www.blender.org
mtllib eees_empty_empty_wall_llaw_eees.mtl
o eees_empty_empty_wall_llaw_eees_Plane.024
v -0.500000 -0.000000 0.000000
v 0.000000 -0.000000 -0.500000
v 0.000000 0.000000 0.000000
v -0.500000 1.000000 0.000000
v 0.000000 1.000000 -0.500000
v 0.000000 1.000000 0.000000
vt 0.500000 0.500000
vt 0.500000 1.000000
vt 0.500000 1.000000
vt 0.000000 0.500000
vt 0.000000 0.500000
vt 0.500000 0.500000
vn 1.0000 0.0000 0.0000
vn 0.0000 0.0000 1.0000
usemtl None
s off
f 3/1/1 2/2/1 5/3/1
f 1/4/2 3/1/2 4/5/2
f 4/5/2 3/1/2 6/6/2
f 5/3/1 6/6/1 3/1/1
