# Blender v2.93.2 OBJ File: 'rect.blend'
# www.blender.org
mtllib eess_empty_wall_empty_llaw_eess.mtl
o eess_empty_wall_empty_llaw_eess_Plane.022
v -0.500000 0.033333 0.000000
v 0.500000 0.033334 0.000000
v -0.500000 1.000000 0.000000
v 0.500000 1.000000 0.000000
v 0.000000 0.500000 0.000000
v 0.000000 0.033333 0.000000
v 0.000000 1.000000 0.000000
vt 0.000000 0.500000
vt 0.250000 0.500000
vt 0.250000 0.500000
vt 0.000000 0.500000
vt 0.250000 0.500000
vt 0.500000 0.500000
vt 0.500000 0.500000
vn 0.0000 0.0000 1.0000
usemtl None
s off
f 1/1/1 6/2/1 5/3/1
f 3/4/1 5/3/1 7/5/1
f 5/3/1 6/2/1 2/6/1
f 7/5/1 5/3/1 4/7/1
f 4/7/1 5/3/1 2/6/1
f 5/3/1 3/4/1 1/1/1
