# Blender v2.93.2 OBJ File: 'rect.blend'
# www.blender.org
mtllib eess_empty_wall_top_llaw_eeff.mtl
o eess_empty_wall_top_llaw_eeff_Plane.012
v -0.500000 0.033333 0.000000
v 0.500000 0.033334 0.000000
v -0.500000 1.000000 -0.500000
v -0.500000 0.900000 0.000000
v -0.500000 1.000000 -0.100000
v 0.500000 1.000000 -0.500000
v 0.500000 1.000000 -0.100000
v 0.500000 0.900000 0.000000
v 0.000000 1.000000 -0.100000
v 0.000000 0.950000 -0.050000
v 0.000000 0.033333 0.000000
v 0.000000 0.466667 0.000000
v 0.000000 0.900000 0.000000
v 0.000000 1.000000 -0.500000
v 0.000000 1.000000 -0.300000
vt 0.000000 0.500000
vt 0.250000 0.500000
vt 0.250000 0.500000
vt 0.452889 0.547112
vt 0.226444 0.523556
vt 0.500000 0.500000
vt 0.047112 0.547112
vt 0.250000 0.547112
vt 0.250000 0.750000
vt 0.047112 0.952888
vt 0.250000 0.952888
vt 0.000000 0.500000
vt 0.250000 0.500000
vt 0.452888 0.952888
vt 0.500000 0.500000
vn 0.0000 0.0000 1.0000
vn 0.0000 0.7071 0.7071
vn 0.0000 1.0000 0.0000
usemtl None
s off
f 1/1/1 11/2/1 12/3/1
f 7/4/2 10/5/2 8/6/2
f 5/7/3 9/8/3 15/9/3
f 3/10/3 15/9/3 14/11/3
f 4/12/1 12/3/1 13/13/1
f 4/12/2 10/5/2 5/7/2
f 15/9/3 9/8/3 7/4/3
f 14/11/3 15/9/3 6/14/3
f 12/3/1 11/2/1 2/15/1
f 13/13/1 12/3/1 8/6/1
f 13/13/2 10/5/2 4/12/2
f 9/8/2 10/5/2 7/4/2
f 12/3/1 4/12/1 1/1/1
f 8/6/1 12/3/1 2/15/1
f 6/14/3 15/9/3 7/4/3
f 15/9/3 3/10/3 5/7/3
f 8/6/2 10/5/2 13/13/2
f 5/7/2 10/5/2 9/8/2
