# Blender v2.93.2 OBJ File: 'rect.blend'
# www.blender.org
mtllib eses_wall_llaw_wall_llaw_efef.mtl
o eses_wall_llaw_wall_llaw_efef_Plane.011
v -0.500000 0.000000 0.000000
v 0.000000 0.000000 0.500000
v 0.500000 0.000000 0.000000
v 0.000000 0.000000 -0.500000
v 0.500000 1.000000 0.500000
v -0.500000 1.000000 -0.500000
v -0.500000 0.900000 0.000000
v 0.000000 0.900000 0.500000
v 0.500000 0.900000 0.000000
v 0.000000 0.900000 -0.500000
v 0.100000 1.000000 0.500000
v -0.100000 1.000000 -0.500000
v -0.500000 1.000000 -0.100000
v 0.500000 1.000000 0.100000
vt 0.000000 0.000000
vt 0.000000 0.000000
vt 0.000000 0.000000
vt 0.000000 0.000000
vt 0.000000 0.000000
vt 0.000000 0.000000
vt 0.000000 0.000000
vt 0.000000 0.000000
vt 0.000000 0.000000
vt 0.000000 0.000000
vt 0.000000 0.000000
vt 0.000000 0.000000
vt 0.000000 0.000000
vt 0.000000 0.000000
vn 0.5774 0.5773 -0.5774
vn 0.0000 1.0000 0.0000
vn 0.5774 0.5774 -0.5774
vn -0.5774 0.5773 0.5774
vn 0.7071 0.0000 -0.7071
vn -0.7071 0.0000 0.7071
vn 0.5774 -0.5773 -0.5774
usemtl None
s off
f 10/1/1 12/2/1 9/3/1
f 6/4/2 5/5/2 14/6/2
f 12/2/2 6/4/2 14/6/2
f 9/3/3 12/2/3 14/6/3
f 6/4/2 13/7/2 5/5/2
f 13/7/4 7/8/4 11/9/4
f 3/10/5 10/1/5 9/3/5
f 2/11/6 8/12/6 1/13/6
f 10/1/5 3/10/5 4/14/5
f 8/12/5 1/13/5 7/8/5
f 5/5/2 13/7/2 11/9/2
f 8/12/7 7/8/7 11/9/7
