# Blender v2.93.2 OBJ File: 'rect.blend'
# www.blender.org
mtllib eses_wall_llaw_wall_llaw_eses.mtl
o eses_wall_llaw_wall_llaw_eses_Plane.020
v -0.500000 0.000000 0.000000
v 0.000000 0.000000 0.500000
v 0.500000 0.000000 0.000000
v 0.000000 0.000000 -0.500000
v -0.500000 1.000000 0.000000
v 0.000000 1.000000 0.500000
v 0.500000 1.000000 0.000000
v 0.000000 1.000000 -0.500000
vt 0.000000 0.000000
vt 0.000000 0.000000
vt 0.000000 0.000000
vt 0.000000 0.000000
vt 0.000000 0.000000
vt 0.000000 0.000000
vt 0.000000 0.000000
vt 0.000000 0.000000
vn 0.7071 0.0000 -0.7071
vn -0.7071 0.0000 0.7071
usemtl None
s off
f 3/1/1 8/2/1 7/3/1
f 2/4/2 6/5/2 1/6/2
f 8/2/1 3/1/1 4/7/1
f 6/5/2 5/8/2 1/6/2
