# Blender v2.93.2 OBJ File: 'rect.blend'
# www.blender.org
mtllib esfs_wall_llaw_wall_llaw_eses.mtl
o esfs_wall_llaw_wall_llaw_eses_Plane.019
v 0.500000 0.000000 -0.500000
v -0.500000 0.000000 0.000000
v 0.000000 0.000000 0.500000
v 0.500000 0.100000 0.000000
v 0.000000 0.100000 -0.500000
v 0.500000 0.000000 -0.100000
v 0.100000 0.000000 -0.500000
v -0.500000 1.000000 0.000000
v 0.000000 1.000000 0.500000
v 0.500000 1.000000 0.000000
v 0.000000 1.000000 -0.500000
vt 0.000000 0.000000
vt 0.000000 0.000000
vt 0.000000 0.000000
vt 0.000000 0.000000
vt 0.000000 0.000000
vt 0.000000 0.000000
vt 0.000000 0.000000
vt 0.000000 0.000000
vt 0.000000 0.000000
vt 0.000000 0.000000
vt 0.000000 0.000000
vn 0.7071 0.0000 -0.7071
vn -0.7071 0.0000 0.7071
vn 0.5774 0.5774 -0.5774
vn 0.0000 1.0000 0.0000
usemtl None
s off
f 4/1/1 11/2/1 10/3/1
f 3/4/2 9/5/2 2/6/2
f 11/2/1 4/1/1 5/7/1
f 9/5/2 8/8/2 2/6/2
f 7/9/3 5/7/3 6/10/3
f 1/11/4 7/9/4 6/10/4
f 6/10/3 5/7/3 4/1/3
