# Blender v2.93.2 OBJ File: 'rect.blend'
# www.blender.org
mtllib fees_bottom_empty_wall_pmar_eeef.mtl
o fees_bottom_empty_wall_pmar_eeef_Plane.016
v -0.500000 0.000000 0.500000
v 0.000000 0.000000 0.500000
v -0.500000 1.000000 -0.500000
v -0.500000 0.500000 0.000000
v 0.000000 0.900000 -0.500000
v 0.000000 0.500000 0.000000
v 0.000000 0.000983 0.000000
v 0.000000 -0.000983 -0.500000
v -0.100000 1.000000 -0.500000
vt 0.500000 0.500000
vt 0.500000 1.000000
vt 0.000000 0.000000
vt 0.000000 0.000000
vt 0.000000 0.500000
vt 0.500000 0.500000
vt 0.500000 1.000000
vt 0.000000 0.000000
vt 0.000000 0.000000
vn 0.6155 0.6155 0.4924
vn 0.0000 0.7071 0.7071
vn 1.0000 0.0000 0.0000
usemtl None
s off
f 6/1/1 5/2/1 9/3/1
f 2/4/2 6/1/2 4/5/2
f 7/6/3 6/1/3 2/4/3
f 7/6/3 8/7/3 6/1/3
f 3/8/2 6/1/2 9/3/2
f 4/5/2 6/1/2 3/8/2
f 2/4/2 4/5/2 1/9/2
f 6/1/3 8/7/3 5/2/3
