# Blender v2.93.2 OBJ File: 'rect.blend'
# www.blender.org
mtllib fffs_bottom_bottom_wall_pmar_eeef.mtl
o fffs_bottom_bottom_wall_pmar_eeef_Plane.002
v -0.500000 0.000000 0.500000
v 0.500000 0.000000 0.500000
v 0.500000 0.000000 -0.500000
v 0.000000 0.000000 0.500000
v 0.500000 0.000000 0.000000
v 0.100000 0.000000 -0.500000
v 0.100000 0.000000 0.000000
v -0.500000 1.000000 -0.500000
v -0.500000 0.500000 0.000000
v 0.000000 0.900000 -0.500000
v 0.000000 0.454997 0.000000
v 0.000000 0.117569 0.310406
v -0.261175 0.261175 0.238825
v 0.085232 -0.000000 0.366438
v 0.000000 0.100983 0.000000
v 0.000000 0.099017 -0.500000
v -0.100000 1.000000 -0.500000
vt 0.500000 0.500000
vt 1.000000 0.500000
vt 0.500000 1.000000
vt 0.500000 0.000000
vt 1.000000 0.000000
vt 0.500000 0.265394
vt 0.500000 0.500000
vt 0.500000 1.000000
vt 0.000000 0.000000
vt 0.500000 0.500000
vt 0.000000 0.500000
vt 0.238825 0.261175
vt 0.500000 0.189594
vt 0.500000 1.000000
vt 0.000000 0.000000
vt 0.000000 0.000000
vt 1.000000 1.000000
vn 0.0000 1.0000 0.0000
vn 0.5985 0.5985 0.5326
vn 0.7106 0.7036 0.0000
vn 0.7103 0.7034 0.0286
vn 0.0664 0.7380 0.6716
vn 0.6368 0.6553 0.4064
vn 0.3072 0.8088 0.5015
vn 1.0000 0.0000 0.0000
vn 0.0000 0.6760 0.7369
vn 0.8162 0.5770 -0.0308
vn 0.0635 0.7057 0.7057
vn 0.0000 0.7071 0.7071
vn 0.7036 0.7106 -0.0028
vn 0.1681 0.6674 0.7255
usemtl None
s off
f 7/1/1 5/2/1 6/3/1
f 4/4/1 2/5/1 14/6/1
f 11/7/2 10/8/2 17/9/2
f 7/1/3 6/3/3 15/10/3
f 7/1/4 15/10/4 14/6/4
f 9/11/5 13/12/5 11/7/5
f 14/6/6 12/13/6 4/4/6
f 12/13/7 13/12/7 4/4/7
f 12/13/8 15/10/8 11/7/8
f 15/10/8 16/14/8 10/8/8
f 8/15/9 11/7/9 17/9/9
f 14/6/10 15/10/10 12/13/10
f 9/11/11 11/7/11 8/15/11
f 4/4/12 13/12/12 1/16/12
f 9/11/12 1/16/12 13/12/12
f 14/6/1 5/2/1 7/1/1
f 10/8/8 11/7/8 15/10/8
f 5/2/1 14/6/1 2/5/1
f 15/10/13 6/3/13 16/14/13
f 6/3/1 5/2/1 3/17/1
f 11/7/14 13/12/14 12/13/14
