# Blender v2.93.2 OBJ File: 'rect.blend'
# www.blender.org
mtllib fffs_bottom_bottom_wall_llaw_eees.mtl
o fffs_bottom_bottom_wall_llaw_eees_Plane.015
v -0.500000 0.000000 0.500000
v 0.500000 0.000000 0.500000
v -0.500000 0.100000 0.000000
v 0.500000 0.000000 -0.500000
v 0.000000 0.000000 0.500000
v 0.500000 0.000000 0.000000
v 0.000000 0.100000 -0.500000
v -0.500000 0.000000 0.100000
v 0.100000 0.000000 -0.500000
v 0.100000 0.000000 0.100000
v 0.000000 0.100000 0.000000
v -0.500000 1.000000 0.000000
v 0.000000 1.000000 -0.500000
v 0.000000 1.000000 0.000000
vt 0.000000 0.000000
vt 0.500000 1.000000
vt 0.500000 0.500000
vt 0.000000 0.000000
vt 0.000000 0.500000
vt 0.000000 0.500000
vt 0.000000 0.000000
vt 0.000000 0.000000
vt 0.500000 0.500000
vt 0.500000 1.000000
vt 0.500000 0.500000
vt 0.000000 0.500000
vt 0.500000 1.000000
vt 0.000000 0.000000
vn 0.0000 1.0000 0.0000
vn 0.0000 0.7071 0.7071
vn 1.0000 0.0000 0.0000
vn 0.7071 0.7071 0.0000
vn 0.0000 0.0000 1.0000
usemtl None
s off
f 4/1/1 9/2/1 10/3/1
f 1/4/1 10/3/1 8/5/1
f 8/5/2 10/3/2 3/6/2
f 2/7/1 6/8/1 10/3/1
f 11/9/3 7/10/3 14/11/3
f 10/3/4 9/2/4 7/10/4
f 3/6/5 14/11/5 12/12/5
f 3/6/2 10/3/2 11/9/2
f 14/11/5 3/6/5 11/9/5
f 14/11/3 7/10/3 13/13/3
f 7/10/4 11/9/4 10/3/4
f 10/3/1 6/8/1 4/1/1
f 10/3/1 1/4/1 5/14/1
f 10/3/1 5/14/1 2/7/1
