# Blender v2.93.2 OBJ File: 'rect.blend'
# www.blender.org
mtllib ffss_bottom_wall_empty_llaw_eess.mtl
o ffss_bottom_wall_empty_llaw_eess_Plane.013
v -0.500000 0.000000 0.500000
v 0.500000 0.000000 0.500000
v -0.500000 0.100000 0.000000
v 0.500000 0.000000 0.500000
v -0.500000 0.000000 0.100000
v 0.500000 0.000000 0.100000
v 0.500000 0.100000 0.000000
v -0.500000 1.000000 0.000000
v 0.500000 1.000000 0.000000
vt 0.000000 0.000000
vt 0.000000 0.000000
vt 0.000000 0.500000
vt 0.500000 0.500000
vt 0.500000 0.500000
vt 0.000000 0.500000
vt 0.000000 0.500000
vt 0.500000 0.500000
vn 0.0000 1.0000 0.0000
vn 0.0000 0.7071 0.7071
vn 0.0000 0.0000 1.0000
usemtl None
s off
f 1/1/1 4/2/1 5/3/1
f 5/3/2 6/4/2 7/5/2
f 3/6/3 7/5/3 8/7/3
f 5/3/1 4/2/1 6/4/1
f 7/5/2 3/6/2 5/3/2
f 8/7/3 7/5/3 9/8/3
l 4 2
