# Blender v2.93.2 OBJ File: 'rect.blend'
# www.blender.org
mtllib ffss_bottom_ramp_top_pmar_eeff.mtl
o ffss_bottom_ramp_top_pmar_eeff_Plane.003
v -0.500000 0.000000 0.500000
v 0.500000 0.000000 0.500000
v -0.500000 1.000000 -0.500000
v 0.500000 1.000000 -0.500000
v 0.500000 0.500000 0.000000
v 0.000000 0.500000 0.000000
v -0.500000 0.500000 0.000000
v 0.000000 0.000000 0.500000
v 0.000000 1.000000 -0.500000
vt 0.000000 0.000000
vt 0.508067 0.000000
vt 0.544053 0.544053
vt 1.000000 1.000000
vt 0.514881 1.000000
vt 0.000000 0.541281
vt 1.000000 0.538103
vt 0.000000 1.000000
vt 1.000000 0.000000
vn 0.0000 0.7071 0.7071
usemtl None
s off
f 1/1/1 8/2/1 6/3/1
f 4/4/1 9/5/1 6/3/1
f 6/3/1 7/6/1 1/1/1
f 6/3/1 5/7/1 4/4/1
f 6/3/1 9/5/1 7/6/1
f 6/3/1 8/2/1 5/7/1
f 7/6/1 9/5/1 3/8/1
f 5/7/1 8/2/1 2/9/1
