# Blender v2.93.2 OBJ File: 'rect.blend'
# www.blender.org
mtllib fsss_wall_top_top_llaw_efff.mtl
o fsss_wall_top_top_llaw_efff_Plane.007
v -0.500000 0.000000 0.500000
v 0.500000 1.000000 -0.500000
v -0.500000 0.100000 0.000000
v 0.000000 0.100000 0.500000
v -0.500000 0.000000 0.100000
v -0.100000 0.000000 0.500000
v 0.500000 1.000000 0.500000
v -0.500000 1.000000 -0.500000
v -0.500000 0.900000 0.000000
v 0.000000 0.900000 0.500000
v 0.100000 1.000000 0.500000
v -0.500000 1.000000 -0.100000
v 0.500000 1.000000 0.000000
v 0.000000 1.000000 -0.500000
vt 0.000000 0.000000
vt 0.000000 0.000000
vt 0.000000 0.000000
vt 0.000000 0.000000
vt 0.000000 0.000000
vt 0.000000 0.000000
vt 0.000000 0.000000
vt 0.000000 0.000000
vt 0.000000 0.000000
vt 0.000000 0.000000
vt 0.000000 0.000000
vt 0.000000 0.000000
vt 0.000000 0.000000
vt 0.000000 0.000000
vn 0.0000 1.0000 0.0000
vn -0.5774 0.5774 0.5774
vn -0.5774 0.5773 0.5774
vn -0.7071 0.0000 0.7071
usemtl None
s off
f 8/1/1 13/2/1 14/3/1
f 8/1/1 12/4/1 7/5/1
f 5/6/2 4/7/2 3/8/2
f 12/4/3 9/9/3 11/10/3
f 4/7/4 10/11/4 3/8/4
f 1/12/1 6/13/1 5/6/1
f 10/11/4 9/9/4 3/8/4
f 6/13/2 4/7/2 5/6/2
f 7/5/1 12/4/1 11/10/1
f 10/11/3 11/10/3 9/9/3
f 14/3/1 13/2/1 2/14/1
f 13/2/1 8/1/1 7/5/1
