# Blender v2.93.2 OBJ File: 'rect.blend'
# www.blender.org
mtllib ssss_top_top_top_top_ffff.mtl
o ssss_top_top_top_top_ffff_Plane.001
v -0.500000 1.000000 0.500000
v 0.500000 1.000000 0.500000
v -0.500000 1.000000 -0.500000
v 0.500000 1.000000 -0.500000
v -0.500000 1.000000 0.000000
v 0.000000 1.000000 0.500000
v 0.500000 1.000000 0.000000
v 0.000000 1.000000 -0.500000
v 0.000000 1.000000 0.000000
vt 0.000000 0.000000
vt 0.000000 0.000000
vt 0.000000 0.000000
vt 0.000000 0.000000
vt 0.000000 0.000000
vt 0.000000 0.000000
vt 0.000000 0.000000
vt 0.000000 0.000000
vt 0.000000 0.000000
vn 0.0000 1.0000 0.0000
usemtl None
s off
f 9/1/1 6/2/1 7/3/1
f 5/4/1 1/5/1 9/1/1
f 3/6/1 5/4/1 8/7/1
f 8/7/1 9/1/1 4/8/1
f 9/1/1 7/3/1 4/8/1
f 1/5/1 6/2/1 9/1/1
f 5/4/1 9/1/1 8/7/1
f 6/2/1 2/9/1 7/3/1
